# xmcd
#
# Track frame offsets: 
#        150
#        16552
#        32870
#        48892
#        61987
#        75590
#        90070
#        104355
#        119587
#        131170
#        145740
#
# Disc length: 2245 seconds
#
# Revision: 4
# Processed by: cddbd v1.5.2PL0 Copyright (c) Steve Scherf et al.
# Submitted via: ExactAudioCopy v0.99pb4
#
DISCID=8208c30b
DTITLE=Eric Clapton - Eric Clapton
DYEAR=1970
DGENRE=Blues
TTITLE0=Slunky
TTITLE1=Bad Boy
TTITLE2=Lonesome and a Long Way from Home
TTITLE3=After Midnight
TTITLE4=Easy Now
TTITLE5=Blues Power
TTITLE6=Bottle of Red Wine
TTITLE7=Lovin' You Lovin' Me
TTITLE8=Told You for the Last Time
TTITLE9=Don't Know Why
TTITLE10=Let It Rain
EXTD=
EXTT0=
EXTT1=
EXTT2=
EXTT3=
EXTT4=
EXTT5=
EXTT6=
EXTT7=
EXTT8=
EXTT9=
EXTT10=
PLAYORDER=
